<svg id="图层_1" data-name="图层 1" xmlns="http://www.w3.org/2000/svg" xmlns:xlink="http://www.w3.org/1999/xlink" viewBox="0 0 244 160"><defs><style>.cls-1{fill:url(#未命名的渐变_8);}.cls-2{fill:#ffc119;}.cls-3{fill:#eac338;}.cls-4{fill:#a8da8a;}.cls-5{fill:#00fff8;}</style><linearGradient id="未命名的渐变_8" x1="107.67" y1="131.04" x2="225.85" y2="68.47" gradientUnits="userSpaceOnUse"><stop offset="0.1" stop-color="#ffc119"/><stop offset="0.92" stop-color="#f4a00b"/></linearGradient></defs><title>Sample logo</title><path class="cls-1" d="M168,32h-4a48,48,0,0,1,0,96H140.6L123,160h41a79.61,79.61,0,0,0,36-8.61A63.93,63.93,0,0,0,232,96h0A64,64,0,0,0,168,32Z"/><path class="cls-2" d="M164,0H123l17.6,32H168a64,64,0,0,1,64,64h0a63.93,63.93,0,0,1-32,55.39A80,80,0,0,0,244,80h0A80,80,0,0,0,164,0Z"/><polygon class="cls-3" points="109 0 82 0 129 80 82 160 109 160 156 80 109 0"/><polygon class="cls-4" points="68 0 41 0 88 80 41 160 68 160 115 80 68 0"/><polygon class="cls-5" points="27 0 0 0 47 80 0 160 27 160 74 80 27 0"/></svg>